<?xml version="1.0" standalone="no"?><!DOCTYPE svg PUBLIC "-//W3C//DTD SVG 1.1//EN" "http://www.w3.org/Graphics/SVG/1.1/DTD/svg11.dtd"><svg t="1751163557713" class="icon" viewBox="0 0 1024 1024" version="1.1" xmlns="http://www.w3.org/2000/svg" p-id="56219" width="16" height="16" xmlns:xlink="http://www.w3.org/1999/xlink"><path d="M737.4888916 116.4921875a148.31542969 148.31542969 0 0 1 148.31542968 148.31542969v494.38476562a148.31542969 148.31542969 0 0 1-148.31542968 148.31542969h-450.38452149a148.31542969 148.31542969 0 0 1-148.31542969-148.31542969V264.80761719a148.31542969 148.31542969 0 0 1 148.31542969-148.31542969h450.38452149z m0 64.27001953h-450.38452149a84.04541016 84.04541016 0 0 0-84.04541015 84.04541016v494.38476562a84.04541016 84.04541016 0 0 0 84.04541015 84.04541016h450.38452149a84.04541016 84.04541016 0 0 0 84.04541015-84.04541016V264.80761719a84.04541016 84.04541016 0 0 0-84.04541015-84.04541016z" fill="#13227a" p-id="56220"></path><path d="M314.54272461 292.24597167m32.13500977 1e-8l331.23779296 0q32.13500977 0 32.13500977 32.13500977l0 0q0 32.13500977-32.13500977 32.13500977l-331.23779296 0q-32.13500977 0-32.13500977-32.13500977l0 0q0-32.13500977 32.13500976-32.13500977Z" fill="#13227a" p-id="56221"></path><path d="M314.54272461 468.79077148m32.13500977 0l202.6977539 0q32.13500977 0 32.13500977 32.13500977l0 0q0 32.13500977-32.13500977 32.13500977l-202.69775391 0q-32.13500977 0-32.13500976-32.13500977l0 0q0-32.13500977 32.13500976-32.13500977Z" fill="#13227a" p-id="56222"></path><path d="M314.54272461 645.33557129m32.13500977-1e-8l281.7993164 0q32.13500977 0 32.13500977 32.13500977l0 0q0 32.13500977-32.13500977 32.13500977l-281.79931641 0q-32.13500977 0-32.13500976-32.13500977l0 0q0-32.13500977 32.13500977-32.13500977Z" fill="#13227a" p-id="56223"></path></svg>